<svg xmlns="http://www.w3.org/2000/svg" xmlns:xlink="http://www.w3.org/1999/xlink" version="1.1" data-diagram-type="DESCRIPTION" style="width:672px;height:272px;background:#FFFFFF;" width="672px" height="272px" viewBox="0 0 672 272" zoomAndPan="magnify" preserveAspectRatio="none" contentStyleType="text/css"><?plantuml 1.2026.8?><defs/><g font-family="sans-serif" lengthAdjust="spacing"><!--entity ==Component--><g class="entity" data-qualified-name="..Component" id="ent0001" data-source-line="97"><rect x="7" y="25.63" width="187.591" height="50.266" fill="#85BBF0" style="stroke:#5D82A8;stroke-width:2;" rx="2.5" ry="2.5"/><text x="17" y="59.764" fill="#000" font-size="26" textLength="167.591" font-weight="700">Component</text></g><!--entity ==Container, Database--><g class="entity" data-qualified-name="..Container. Database" id="ent0002" data-source-line="99"><path d="M229.2,16 C229.2,6 315.791,6 315.791,6 C315.791,6 402.382,6 402.382,16 L402.382,85.531 C402.382,95.531 315.791,95.531 315.791,95.531 C315.791,95.531 229.2,95.531 229.2,85.531 L229.2,16" style="stroke:#2E6295;stroke-width:2;" fill="#438DD5"/><path d="M229.2,16 C229.2,26 315.791,26 315.791,26 C315.791,26 402.382,26 402.382,16" style="stroke:#2E6295;stroke-width:2;" fill="none"/><text x="239.2" y="54.134" fill="#FFF" font-size="26" textLength="153.182" font-weight="700">Container,</text><text x="246.608" y="84.399" fill="#FFF" font-size="26" textLength="138.366" font-weight="700">Database</text></g><!--entity ==Container, Planned--><g class="entity" data-qualified-name="..Container. Planned" id="ent0003" data-source-line="101"><rect x="14.2" y="166.67" width="173.182" height="80.531" fill="#438DD5" style="stroke:#2E6295;stroke-width:2;stroke-dasharray:10,10;" rx="2.5" ry="2.5"/><text x="24.2" y="200.804" fill="#FFF" font-size="26" textLength="153.182" font-weight="700">Container,</text><text x="41.402" y="231.069" fill="#FFF" font-size="26" textLength="118.777" font-weight="700">Planned</text></g><!--entity ==Container, Queue, Planned--><g class="entity" data-qualified-name="..Container. Queue. Planned" id="ent0004" data-source-line="103"><path d="M227.2,156.53 L390.382,156.53 C395.382,156.53 395.382,206.928 395.382,206.928 C395.382,206.928 395.382,257.327 390.382,257.327 L227.2,257.327 C222.2,257.327 222.2,206.928 222.2,206.928 C222.2,206.928 222.2,156.53 227.2,156.53" style="stroke:#2E6295;stroke-width:2;stroke-dasharray:10,10;" fill="#438DD5"/><path d="M390.382,156.53 C385.382,156.53 385.382,206.928 385.382,206.928 C385.382,257.327 390.382,257.327 390.382,257.327" style="stroke:#2E6295;stroke-width:2;stroke-dasharray:10,10;" fill="none"/><text x="227.2" y="185.664" fill="#FFF" font-size="26" textLength="153.182" font-weight="700">Container,</text><text x="251.658" y="215.929" fill="#FFF" font-size="26" textLength="104.267" font-weight="700">Queue,</text><text x="244.402" y="246.195" fill="#FFF" font-size="26" textLength="118.777" font-weight="700">Planned</text></g><!--entity 1--><g class="entity" data-qualified-name="1" id="ent0005" data-source-line="105"><rect x="437.57" y="32.62" width="24.45" height="36.297" fill="none" style="stroke:none;" rx="2.5" ry="2.5"/></g><!--link 1 to 1--><g class="link" data-entity-1="ent0005" data-entity-2="ent0005" id="lnk6" data-source-line="106" data-link-type="dependency"><path d="M462.37,40.88 C478.19,32.92 497.02,36.21 497.02,50.77 C497.02,65.32 482.656,70.867 466.836,62.907" style="stroke:#444;stroke-width:2;stroke-dasharray:10,10;" fill="none" id="1-to-1"/><polygon points="462.37,60.66,468.612,68.278,466.836,62.907,472.208,61.132,462.37,60.66" fill="#444" style="stroke:#444;stroke-width:2;stroke-linejoin:miter;stroke-miterlimit:10;"/><text x="503.02" y="59.547" fill="#444" font-size="24" textLength="148.406">Relationship</text></g><?plantuml-src vLPTRzem57tFhxXYhqs1Z4o10L9B1zkqJGFAvvkJ69BLiJFR4HzJ__iS4cX626khQUeqIw1mV7ryxx5pBW9B43X474d6WJAADSztCGY9EMPo4s9DQmgv8RYj0N369FnG3m3NoBbRSXPHjyC8umrujTYDjxlPBgDoZzTs8yRlrQTSXdS41vZAYmuBGhKXbGg-J45zC5aJUpAEtCxwnZQgAzimYKtxhS9jBTEs5vLasqy-nNlST2q3MG_uC2wY0Pd8MyztxYWMeW56FktARZpWGt-hbXkr17dFkBzLA29Nn5_IEFK6EEeRyoHWw26NhNowF6pv6Qtz80eclYizHPHmvoHHb2erVd639BAHmCNQc9NPX4JpwGSnw7NLyqVFCKR5EjLUMwvhvdKoy1kZRZvVf-DZ_yiwVIM8Kkm-HgPHR-tPWKdcLwq_9bErebV_5Qdw4OxmamIRZeax6VrdmWqmGT9dL7X-6AkK_QsFWh6OJGUXaccBUcILod6wXE9oyzvOv9cd2ZwNlJfkYXqv33rbu77wr_4X8RxH-qOzieFnDxVxPOLwuysyV-Oqiufd4wxODSkglHYtI8iEupkjKDrXHqKxoTKDxS2HCwF-lA9Vc4McHKkEg52TMqK2JjvaMAWcpZFtLO1FWU0bfh-yyBUPfGLYPDXpWkJcCiKUpTrhpNBwzq7ZwbuYkYGOIgtMeVcNeDdyNVDlgzLksX2JnNjFWtsVBAOvtIVR-OGEdAb5FeOoQuqnvVVOOu_e4jzz4ki9uprA-3BcENMWxJOW0LMj2hhUXggAEcjWAhm1fMn8IVi9?></g></svg>